<?xml version="1.0" encoding="UTF-8"?>
<!DOCTYPE svg PUBLIC "-//W3C//DTD SVG 1.1//EN" "http://www.w3.org/Graphics/SVG/1.1/DTD/svg11.dtd">
<!-- Creator: CorelDRAW X7 -->
<svg xmlns="http://www.w3.org/2000/svg" xml:space="preserve" width="24px" height="24px" version="1.1" style="shape-rendering:geometricPrecision; text-rendering:geometricPrecision; image-rendering:optimizeQuality; fill-rule:evenodd; clip-rule:evenodd"
viewBox="0 0 24 24"
 xmlns:xlink="http://www.w3.org/1999/xlink">
 <defs>
  <style type="text/css">
   <![CDATA[
    .str1 {stroke:#FEFEFE;stroke-width:0.103147}
    .str0 {stroke:#349A34;stroke-width:0.103147}
    .fil1 {fill:#FEFEFE}
    .fil0 {fill:#349A34}
   ]]>
  </style>
 </defs>
 <g id="Camada_x0020_1">
  <metadata id="CorelCorpID_0Corel-Layer"/>
  <g id="_779742690144">
   <circle class="fil0 str0" cx="12" cy="12" r="12"/>
   <path class="fil1 str1" d="M12 12l-8 0c0,4 4,7 8,7 4,0 8,-3 8,-7l-8 0z"/>
   <path class="fil1 str1" d="M7 7c1,0 1,0 1,0 0,-1 0,-1 0,-1 1,0 1,0 1,1 0,0 0,0 0,0 1,1 1,1 1,1 0,0 0,0 0,0 0,0 0,0 1,-1 0,0 0,0 0,0 -1,-1 -1,-1 -1,-1 0,0 0,-1 0,-1 0,0 0,0 -1,0 0,0 0,0 0,0 0,0 -1,0 -1,0 0,0 0,0 -1,0 0,0 0,0 0,1 0,0 0,0 -1,0 0,0 0,1 0,1 0,0 0,0 0,0 0,1 1,1 1,1 0,0 0,0 0,0 0,0 0,0 0,-1z"/>
   <path class="fil1 str1" d="M14 7c0,0 1,0 1,0 0,-1 0,-1 0,-1 0,0 1,0 1,1 0,0 0,0 0,0 0,1 1,1 1,1 0,0 0,0 0,0 0,0 0,0 0,-1 0,0 0,0 0,0 0,-1 0,-1 0,-1 0,0 0,-1 0,-1 0,0 -1,0 -1,0 0,0 0,0 0,0 0,0 -1,0 -1,0 0,0 -1,0 -1,0 0,0 0,0 0,1 0,0 -1,0 -1,0 0,0 0,1 0,1 0,0 0,0 0,0 0,1 0,1 1,1 0,0 0,0 0,0 0,0 0,0 0,-1z"/>
  </g>
 </g>
</svg>
