<?xml version="1.0" encoding="UTF-8"?>
<!DOCTYPE svg PUBLIC "-//W3C//DTD SVG 1.1//EN" "http://www.w3.org/Graphics/SVG/1.1/DTD/svg11.dtd">
<!-- Creator: CorelDRAW X7 -->
<svg xmlns="http://www.w3.org/2000/svg" xml:space="preserve" width="24px" height="24px" version="1.1" style="shape-rendering:geometricPrecision; text-rendering:geometricPrecision; image-rendering:optimizeQuality; fill-rule:evenodd; clip-rule:evenodd"
viewBox="0 0 2400000 2400000"
 xmlns:xlink="http://www.w3.org/1999/xlink">
 <defs>
  <style type="text/css">
   <![CDATA[
    .str1 {stroke:#FEFEFE;stroke-width:10314.7}
    .str0 {stroke:#99CB34;stroke-width:10314.7}
    .fil1 {fill:#FEFEFE}
    .fil0 {fill:#99CB34}
   ]]>
  </style>
 </defs>
 <g id="Camada_x0020_1">
  <metadata id="CorelCorpID_0Corel-Layer"/>
  <g id="_522727551648">
   <circle class="fil0 str0" cx="1199996" cy="1200000" r="1199809"/>
   <circle class="fil1 str1" cx="872338" cy="799445" r="146247"/>
   <circle class="fil1 str1" cx="1495012" cy="799445" r="146247"/>
   <path class="fil1 str1" d="M599445 1411993c50003,2992 137543,71648 215147,118904 77604,47255 145246,73110 203696,87039 58450,13929 107695,15918 175350,13428 67655,-2477 153705,-9449 247973,-41043 94267,-31580 196738,-87783 253685,-120622 56961,-32826 68399,-42274 80582,-48745 12196,-6457 25124,-9949 37564,-9448 12440,501 24379,4968 34572,11925 10206,6972 18653,16434 22132,31919 3492,15486 1989,37009 -7459,56907 -9448,19899 -26870,38159 -64176,65692 -37306,27547 -94511,64366 -142511,90721 -48000,26369 -86809,42288 -119391,55716 -32582,13441 -58937,24379 -101469,34328 -42531,9949 -101225,18910 -164399,21888 -63174,2992 -130815,0 -196237,-8203 -65408,-8203 -128582,-21644 -219871,-62186 -91276,-40541 -210653,-108183 -264136,-173347 -53468,-65164 -41042,-127851 8948,-124873z"/>
  </g>
 </g>
</svg>
