<?xml version="1.0" encoding="UTF-8"?>
<!DOCTYPE svg PUBLIC "-//W3C//DTD SVG 1.1//EN" "http://www.w3.org/Graphics/SVG/1.1/DTD/svg11.dtd">
<!-- Creator: CorelDRAW X7 -->
<svg xmlns="http://www.w3.org/2000/svg" xml:space="preserve" width="24px" height="24px" version="1.1" style="shape-rendering:geometricPrecision; text-rendering:geometricPrecision; image-rendering:optimizeQuality; fill-rule:evenodd; clip-rule:evenodd"
viewBox="0 0 2400000 2400000"
 xmlns:xlink="http://www.w3.org/1999/xlink">
 <defs>
  <style type="text/css">
   <![CDATA[
    .str1 {stroke:#FEFEFE;stroke-width:10314.7}
    .str0 {stroke:#349A34;stroke-width:10314.7}
    .fil1 {fill:#FEFEFE}
    .fil0 {fill:#349A34}
   ]]>
  </style>
 </defs>
 <g id="Camada_x0020_1">
  <metadata id="CorelCorpID_0Corel-Layer"/>
  <g id="_522730965184">
   <circle class="fil0 str0" cx="1199996" cy="1200000" r="1199809"/>
   <path class="fil1 str1" d="M1200501 1154734l-799283 0c0,425029 357848,769598 799283,769598 441421,0 799269,-344569 799269,-769598l-799269 0z"/>
   <path class="fil1 str1" d="M748426 746897c11195,-19899 13672,-54728 25611,-79594 11939,-24866 33327,-39797 57949,-42721 24623,-2937 52481,6105 70890,31228 18410,25124 27358,66315 39053,89395 11695,23079 26112,28061 42274,28805 16176,745 34085,-2748 46267,-8460 12197,-5726 18654,-13672 22552,-29997 3898,-16338 5225,-41042 -745,-67397 -5969,-26369 -19235,-54403 -32582,-78105 -13346,-23716 -26788,-43127 -40717,-57543 -13929,-14430 -28345,-23892 -44264,-31093 -15919,-7215 -33327,-12197 -53482,-15919 -20142,-3736 -43019,-6213 -69144,-2234 -26112,3980 -55459,14417 -79337,28846 -23878,14430 -42274,32826 -56961,49990 -14673,17164 -25611,33083 -32826,54227 -7214,21144 -10693,47499 -11438,71878 -744,24379 1246,46755 6714,60440 5469,13672 14430,18653 24867,21888 10450,3222 22389,4724 38308,2978 15918,-1746 35817,-6714 47011,-26612z"/>
   <path class="fil1 str1" d="M1438782 746897c11194,-19899 13671,-54728 25611,-79594 11939,-24866 33326,-39797 57949,-42721 24622,-2937 52480,6105 70890,31228 18409,25124 27357,66315 39052,89395 11696,23079 26112,28061 42274,28805 16176,745 34085,-2748 46268,-8460 12196,-5726 18653,-13672 22551,-29997 3899,-16338 5225,-41042 -744,-67397 -5970,-26369 -19235,-54403 -32582,-78105 -13347,-23716 -26789,-43127 -40718,-57543 -13929,-14430 -28345,-23892 -44264,-31093 -15918,-7215 -33326,-12197 -53482,-15919 -20142,-3736 -43018,-6213 -69144,-2234 -26111,3980 -55458,14417 -79336,28846 -23879,14430 -42275,32826 -56961,49990 -14674,17164 -25611,33083 -32826,54227 -7215,21144 -10694,47499 -11438,71878 -745,24379 1245,46755 6714,60440 5468,13672 14429,18653 24866,21888 10450,3222 22389,4724 38308,2978 15919,-1746 35817,-6714 47012,-26612z"/>
  </g>
 </g>
</svg>
