<?xml version="1.0" encoding="UTF-8"?>
<!DOCTYPE svg PUBLIC "-//W3C//DTD SVG 1.1//EN" "http://www.w3.org/Graphics/SVG/1.1/DTD/svg11.dtd">
<!-- Creator: CorelDRAW X7 -->
<svg xmlns="http://www.w3.org/2000/svg" xml:space="preserve" width="24px" height="24px" version="1.1" style="shape-rendering:geometricPrecision; text-rendering:geometricPrecision; image-rendering:optimizeQuality; fill-rule:evenodd; clip-rule:evenodd"
viewBox="0 0 2400000 2400000"
 xmlns:xlink="http://www.w3.org/1999/xlink">
 <defs>
  <style type="text/css">
   <![CDATA[
    .str1 {stroke:#FEFEFE;stroke-width:10314.7}
    .str0 {stroke:#DA1C1C;stroke-width:10314.7}
    .fil1 {fill:#FEFEFE}
    .fil0 {fill:#DA1C1C}
   ]]>
  </style>
 </defs>
 <g id="Camada_x0020_1">
  <metadata id="CorelCorpID_0Corel-Layer"/>
  <g id="_522829804624">
   <circle class="fil0 str0" cx="1199996" cy="1200000" r="1199809"/>
   <circle class="fil1 str1" cx="898152" cy="788535" r="146247"/>
   <circle class="fil1 str1" cx="1520826" cy="788535" r="146247"/>
   <path class="fil1 str1" d="M605144 1682870c50003,-2992 137543,-71648 215147,-118904 77604,-47255 145245,-73110 203695,-87039 58451,-13929 107696,-15919 175351,-13428 67655,2477 153705,9449 247973,41042 94267,31581 196737,87784 253685,120623 56961,32826 68399,42274 80582,48745 12196,6456 25124,9949 37563,9448 12440,-501 24379,-4968 34572,-11926 10207,-6971 18653,-16433 22132,-31918 3493,-15486 1990,-37009 -7458,-56907 -9449,-19899 -26870,-38159 -64176,-65692 -37306,-27547 -94511,-64366 -142511,-90721 -48000,-26369 -86809,-42288 -119391,-55716 -32582,-13441 -58937,-24379 -101469,-34328 -42531,-9949 -101225,-18910 -164399,-21888 -63174,-2992 -130816,0 -196237,8203 -65408,8203 -128582,21644 -219871,62186 -91276,40541 -210653,108182 -264136,173347 -53468,65164 -41042,127851 8948,124873z"/>
  </g>
 </g>
</svg>
