<?xml version="1.0" encoding="UTF-8"?>
<!DOCTYPE svg PUBLIC "-//W3C//DTD SVG 1.1//EN" "http://www.w3.org/Graphics/SVG/1.1/DTD/svg11.dtd">
<!-- Creator: CorelDRAW X7 -->
<svg xmlns="http://www.w3.org/2000/svg" xml:space="preserve" width="24px" height="24px" version="1.1" style="shape-rendering:geometricPrecision; text-rendering:geometricPrecision; image-rendering:optimizeQuality; fill-rule:evenodd; clip-rule:evenodd"
viewBox="0 0 2400000 2400000"
 xmlns:xlink="http://www.w3.org/1999/xlink">
 <defs>
  <style type="text/css">
   <![CDATA[
    .str1 {stroke:#FEFEFE;stroke-width:10314.7}
    .str0 {stroke:#FF3334;stroke-width:10314.7}
    .fil1 {fill:#FEFEFE}
    .fil0 {fill:#FF3334}
   ]]>
  </style>
 </defs>
 <g id="Camada_x0020_1">
  <metadata id="CorelCorpID_0Corel-Layer"/>
  <g id="_522818562976">
   <circle class="fil0 str0" cx="1199996" cy="1200000" r="1199809"/>
   <circle class="fil1 str1" cx="862795" cy="804792" r="146247"/>
   <circle class="fil1 str1" cx="1502924" cy="841482" r="182937"/>
   <path class="fil1 str1" d="M542443 1454213c12440,-17408 35330,-40798 67411,-62430 32082,-21644 73381,-41543 127852,-56216 54470,-14674 122111,-24122 197468,-19885 75371,4223 158444,22132 234545,52724 76115,30592 145259,73868 191026,97503 45766,23621 68142,27600 96500,30592 28359,2978 62674,4968 103215,1245 40542,-3736 87310,-13198 122626,-27614 35317,-14430 59195,-33827 86308,-44264 27114,-10450 57449,-11953 77591,-3736 20155,8203 30105,26112 35573,40041 5469,13929 6471,23878 501,36074 -5969,12183 -18910,26599 -36074,41530 -17151,14917 -38552,30335 -60197,43763 -21631,13428 -43505,24880 -78077,36318 -34572,11438 -81841,22890 -142782,24880 -60927,1990 -135553,-5483 -187289,-18911 -51723,-13428 -80582,-32839 -111919,-52981 -31337,-20142 -65151,-41042 -101469,-59438 -36318,-18410 -75113,-34328 -125604,-45767 -50491,-11438 -112677,-18409 -170883,-11682 -58193,6714 -112406,27100 -152704,44522 -40298,17407 -66653,31824 -89042,38795 -22390,6958 -40785,6470 -55716,1746 -14917,-4738 -26369,-13685 -33340,-22146 -6958,-8460 -9435,-16419 -9692,-26111 -244,-9706 1746,-21144 14172,-38552z"/>
  </g>
 </g>
</svg>
